<svg version="1.0" xmlns="http://www.w3.org/2000/svg"
 width="204.000000pt" height="192.000000pt" viewBox="0 0 204.000000 192.000000"
 preserveAspectRatio="xMidYMid meet">

<g transform="translate(0.000000,192.000000) scale(0.100000,-0.100000)"
fill="#000000" stroke="none">
<path d="M885 1583 c-30 -9 -58 -25 -69 -40 -19 -26 -19 -26 2 -21 12 4 22 2
22 -3 0 -5 6 -9 13 -9 6 0 47 -16 90 -34 l78 -34 109 40 109 41 -14 27 c-11
22 -25 29 -71 39 -78 15 -208 13 -269 -6z"/>
<path d="M570 1368 c-75 -25 -169 -307 -125 -374 9 -14 20 -24 25 -22 4 2 29
30 54 63 25 33 55 72 67 87 19 23 22 38 20 105 -2 43 -6 94 -9 114 -7 33 -9
35 -32 27z"/>
<path d="M1437 1373 c-3 -5 -5 -41 -5 -80 0 -39 -3 -80 -6 -91 -10 -30 9 -66
80 -158 l66 -84 20 25 c17 22 19 34 13 83 -13 115 -53 222 -101 279 -21 23
-59 38 -67 26z"/>
<path d="M960 1200 c-29 -27 -73 -59 -96 -70 -23 -12 -47 -27 -53 -33 -7 -9 1
-50 30 -140 l40 -127 139 0 139 0 42 130 c23 72 40 132 38 134 -11 9 -219 156
-222 156 -2 0 -28 -22 -57 -50z"/>
<path d="M545 732 c-3 -3 -5 -19 -5 -35 0 -45 112 -150 218 -205 76 -40 86
-43 113 -32 16 7 29 16 29 21 0 5 -29 50 -65 100 l-65 93 -67 17 c-38 9 -87
24 -110 32 -23 8 -45 12 -48 9z"/>
<path d="M1385 709 c-49 -16 -95 -29 -102 -29 -7 0 -29 -26 -50 -57 -20 -32
-53 -77 -72 -101 -36 -45 -34 -56 9 -67 43 -10 181 66 261 145 60 59 69 72 69
104 0 23 -5 36 -12 35 -7 0 -53 -14 -103 -30z"/>
<path d="M1102 450 c-12 -5 -69 -11 -126 -12 -58 -2 -102 -6 -100 -9 2 -4 -2
-9 -8 -12 -25 -8 124 -19 203 -15 88 5 117 20 85 44 -22 16 -23 16 -54 4z"/>
</g>
</svg>
